<?xml version="1.0" encoding="UTF-8" standalone="no"?>
<!DOCTYPE svg PUBLIC "-//W3C//DTD SVG 1.1//EN"
 "http://www.w3.org/Graphics/SVG/1.1/DTD/svg11.dtd">
<!-- Generated by graphviz version 2.30.1 (20130214.1330)
 -->
<!-- Title: G Pages: 1 -->
<svg width="892pt" height="366pt"
 viewBox="0.00 0.00 892.00 366.00" xmlns="http://www.w3.org/2000/svg" xmlns:xlink="http://www.w3.org/1999/xlink">
<g id="graph0" class="graph" transform="scale(1 1) rotate(0) translate(4 362)">
<title>G</title>
<polygon fill="white" stroke="white" points="-4,5 -4,-362 889,-362 889,5 -4,5"/>
<g id="clust1" class="cluster"><title>cluster_Global</title>
<path fill="none" stroke="gray" d="M103,-44C103,-44 864,-44 864,-44 870,-44 876,-50 876,-56 876,-56 876,-338 876,-338 876,-344 870,-350 864,-350 864,-350 103,-350 103,-350 97,-350 91,-344 91,-338 91,-338 91,-56 91,-56 91,-50 97,-44 103,-44"/>
<text text-anchor="middle" x="483.5" y="-337.2" font-family="Times New Roman,serif" font-size="11.00" fill="gray">Global</text>
</g>
<g id="clust2" class="cluster"><title>cluster_\Trismegiste</title>
<path fill="none" stroke="gray" d="M111,-52C111,-52 856,-52 856,-52 862,-52 868,-58 868,-64 868,-64 868,-310 868,-310 868,-316 862,-322 856,-322 856,-322 111,-322 111,-322 105,-322 99,-316 99,-310 99,-310 99,-64 99,-64 99,-58 105,-52 111,-52"/>
<text text-anchor="middle" x="483.5" y="-309.2" font-family="Times New Roman,serif" font-size="11.00" fill="gray">Trismegiste</text>
</g>
<g id="clust3" class="cluster"><title>cluster_\Trismegiste\Socialist</title>
<path fill="none" stroke="gray" d="M119,-60C119,-60 848,-60 848,-60 854,-60 860,-66 860,-72 860,-72 860,-282 860,-282 860,-288 854,-294 848,-294 848,-294 119,-294 119,-294 113,-294 107,-288 107,-282 107,-282 107,-72 107,-72 107,-66 113,-60 119,-60"/>
<text text-anchor="middle" x="483.5" y="-281.2" font-family="Times New Roman,serif" font-size="11.00" fill="gray">Socialist</text>
</g>
<!-- \\Trismegiste\\Socialist\\User -->
<g id="node1" class="node"><title>\\Trismegiste\\Socialist\\User</title>
<polygon fill="none" stroke="black" points="476,-239 422,-239 422,-203 476,-203 476,-239"/>
<text text-anchor="middle" x="449" y="-218.2" font-family="Courier,monospace" font-size="11.00">User</text>
</g>
<!-- \\Trismegiste\\Socialist\\Famous -->
<g id="node10" class="node"><title>\\Trismegiste\\Socialist\\Famous</title>
<polygon fill="none" stroke="black" points="195.5,-199 138.5,-199 138.5,-163 195.5,-163 195.5,-199"/>
<text text-anchor="middle" x="167" y="-178.2" font-family="Courier,monospace" font-size="11.00">Famous</text>
</g>
<!-- \\Trismegiste\\Socialist\\User&#45;&gt;\\Trismegiste\\Socialist\\Famous -->
<g id="edge1" class="edge"><title>\\Trismegiste\\Socialist\\User&#45;&gt;\\Trismegiste\\Socialist\\Famous</title>
<path fill="none" stroke="black" stroke-dasharray="1,5" d="M421.91,-217.273C372.193,-210.17 263.701,-194.672 205.945,-186.421"/>
<polygon fill="none" stroke="black" points="206.172,-182.918 195.777,-184.968 205.182,-189.847 206.172,-182.918"/>
</g>
<!-- \\Trismegiste\\Yuurei\\Persistence\\Persistable -->
<g id="node13" class="node"><title>\\Trismegiste\\Yuurei\\Persistence\\Persistable</title>
<ellipse fill="none" stroke="black" cx="167" cy="-18" rx="166.271" ry="18"/>
<text text-anchor="middle" x="167" y="-14.3" font-family="Times New Roman,serif" font-size="14.00" fill="gray">\Trismegiste\Yuurei\Persistence\Persistable</text>
</g>
<!-- \\Trismegiste\\Socialist\\User&#45;&gt;\\Trismegiste\\Yuurei\\Persistence\\Persistable -->
<g id="edge2" class="edge"><title>\\Trismegiste\\Socialist\\User&#45;&gt;\\Trismegiste\\Yuurei\\Persistence\\Persistable</title>
<path fill="none" stroke="black" stroke-dasharray="1,5" d="M421.935,-207.233C416.24,-203.449 410.56,-198.992 406,-194 359.344,-142.921 388.758,-98.2768 334,-56 322.002,-46.7368 308.152,-39.6598 293.672,-34.2648"/>
<polygon fill="none" stroke="black" points="294.674,-30.9081 284.079,-30.9564 292.392,-37.5256 294.674,-30.9081"/>
</g>
<!-- \\Trismegiste\\Socialist\\Follower -->
<g id="node9" class="node"><title>\\Trismegiste\\Socialist\\Follower</title>
<polygon fill="none" stroke="black" points="202.5,-253 131.5,-253 131.5,-217 202.5,-217 202.5,-253"/>
<text text-anchor="middle" x="167" y="-232.2" font-family="Courier,monospace" font-size="11.00">Follower</text>
</g>
<!-- \\Trismegiste\\Socialist\\User&#45;&gt;\\Trismegiste\\Socialist\\Follower -->
<g id="edge3" class="edge"><title>\\Trismegiste\\Socialist\\User&#45;&gt;\\Trismegiste\\Socialist\\Follower</title>
<path fill="none" stroke="black" stroke-dasharray="1,5" d="M421.91,-222.305C374.139,-224.693 272.104,-229.795 212.954,-232.752"/>
<polygon fill="none" stroke="black" points="212.597,-229.266 202.784,-233.261 212.947,-236.257 212.597,-229.266"/>
</g>
<!-- \\Trismegiste\\Socialist\\Publishing -->
<g id="node2" class="node"><title>\\Trismegiste\\Socialist\\Publishing</title>
<polygon fill="none" stroke="black" points="665.5,-185 580.5,-185 580.5,-149 665.5,-149 665.5,-185"/>
<text text-anchor="start" x="589" y="-170.7" font-family="Courier,monospace" font-size="11.00">«abstract»</text>
<text text-anchor="start" x="589" y="-159.7" font-family="Courier,monospace" font-size="11.00">Publishing</text>
</g>
<!-- \\Trismegiste\\Socialist\\Content -->
<g id="node6" class="node"><title>\\Trismegiste\\Socialist\\Content</title>
<polygon fill="none" stroke="black" points="491.5,-185 406.5,-185 406.5,-149 491.5,-149 491.5,-185"/>
<text text-anchor="start" x="415" y="-170.7" font-family="Courier,monospace" font-size="11.00">«abstract»</text>
<text text-anchor="start" x="425" y="-159.7" font-family="Courier,monospace" font-size="11.00">Content</text>
</g>
<!-- \\Trismegiste\\Socialist\\Publishing&#45;&gt;\\Trismegiste\\Socialist\\Content -->
<g id="edge4" class="edge"><title>\\Trismegiste\\Socialist\\Publishing&#45;&gt;\\Trismegiste\\Socialist\\Content</title>
<path fill="none" stroke="black" d="M580.364,-167C556.683,-167 526.823,-167 501.657,-167"/>
<polygon fill="none" stroke="black" points="501.551,-163.5 491.551,-167 501.551,-170.5 501.551,-163.5"/>
</g>
<!-- \\Trismegiste\\Socialist\\Publishing&#45;&gt;\\Trismegiste\\Yuurei\\Persistence\\Persistable -->
<g id="edge5" class="edge"><title>\\Trismegiste\\Socialist\\Publishing&#45;&gt;\\Trismegiste\\Yuurei\\Persistence\\Persistable</title>
<path fill="none" stroke="black" stroke-dasharray="1,5" d="M580.683,-148.922C525.335,-125.206 423.683,-83.3943 334,-56 309.413,-48.4897 282.376,-41.697 257.39,-36.0011"/>
<polygon fill="none" stroke="black" points="258.083,-32.5697 247.559,-33.7917 256.548,-39.3993 258.083,-32.5697"/>
</g>
<!-- \\Trismegiste\\Socialist\\Commentary -->
<g id="node3" class="node"><title>\\Trismegiste\\Socialist\\Commentary</title>
<polygon fill="none" stroke="black" points="665,-239 581,-239 581,-203 665,-203 665,-239"/>
<text text-anchor="middle" x="623" y="-218.2" font-family="Courier,monospace" font-size="11.00">Commentary</text>
</g>
<!-- \\Trismegiste\\Socialist\\Commentary&#45;&gt;\\Trismegiste\\Socialist\\Content -->
<g id="edge6" class="edge"><title>\\Trismegiste\\Socialist\\Commentary&#45;&gt;\\Trismegiste\\Socialist\\Content</title>
<path fill="none" stroke="black" d="M580.802,-208.066C557.025,-200.601 526.909,-191.146 501.57,-183.19"/>
<polygon fill="none" stroke="black" points="502.347,-179.766 491.757,-180.11 500.25,-186.445 502.347,-179.766"/>
</g>
<!-- \\Trismegiste\\Socialist\\SimplePost -->
<g id="node4" class="node"><title>\\Trismegiste\\Socialist\\SimplePost</title>
<polygon fill="none" stroke="black" points="845,-266 761,-266 761,-230 845,-230 845,-266"/>
<text text-anchor="middle" x="803" y="-245.2" font-family="Courier,monospace" font-size="11.00">SimplePost</text>
</g>
<!-- \\Trismegiste\\Socialist\\SimplePost&#45;&gt;\\Trismegiste\\Socialist\\Publishing -->
<g id="edge7" class="edge"><title>\\Trismegiste\\Socialist\\SimplePost&#45;&gt;\\Trismegiste\\Socialist\\Publishing</title>
<path fill="none" stroke="black" d="M762.053,-229.822C735.715,-217.837 701.043,-202.059 673.035,-189.313"/>
<polygon fill="none" stroke="black" points="674.365,-186.074 663.813,-185.117 671.466,-192.445 674.365,-186.074"/>
</g>
<!-- \\Trismegiste\\Socialist\\Author -->
<g id="node5" class="node"><title>\\Trismegiste\\Socialist\\Author</title>
<polygon fill="none" stroke="black" points="831.5,-212 774.5,-212 774.5,-176 831.5,-176 831.5,-212"/>
<text text-anchor="middle" x="803" y="-191.2" font-family="Courier,monospace" font-size="11.00">Author</text>
</g>
<!-- \\Trismegiste\\Socialist\\AuthorInterface -->
<g id="node7" class="node"><title>\\Trismegiste\\Socialist\\AuthorInterface</title>
<polygon fill="none" stroke="black" points="682,-131 564,-131 564,-95 682,-95 682,-131"/>
<text text-anchor="middle" x="623" y="-110.2" font-family="Courier,monospace" font-size="11.00">AuthorInterface</text>
</g>
<!-- \\Trismegiste\\Socialist\\Author&#45;&gt;\\Trismegiste\\Socialist\\AuthorInterface -->
<g id="edge8" class="edge"><title>\\Trismegiste\\Socialist\\Author&#45;&gt;\\Trismegiste\\Socialist\\AuthorInterface</title>
<path fill="none" stroke="black" stroke-dasharray="1,5" d="M774.188,-181.344C747.222,-169.073 705.733,-150.193 673.189,-135.384"/>
<polygon fill="none" stroke="black" points="674.387,-132.084 663.836,-131.128 671.488,-138.455 674.387,-132.084"/>
</g>
<!-- \\Trismegiste\\Socialist\\Content&#45;&gt;\\Trismegiste\\Socialist\\Famous -->
<g id="edge9" class="edge"><title>\\Trismegiste\\Socialist\\Content&#45;&gt;\\Trismegiste\\Socialist\\Famous</title>
<path fill="none" stroke="black" stroke-dasharray="1,5" d="M406.384,-169.081C352.225,-171.789 258.346,-176.483 206.018,-179.099"/>
<polygon fill="none" stroke="black" points="205.633,-175.614 195.821,-179.609 205.983,-182.605 205.633,-175.614"/>
</g>
<!-- \\Trismegiste\\Socialist\\AbusiveReport -->
<g id="node8" class="node"><title>\\Trismegiste\\Socialist\\AbusiveReport</title>
<polygon fill="none" stroke="black" points="219,-145 115,-145 115,-109 219,-109 219,-145"/>
<text text-anchor="middle" x="167" y="-124.2" font-family="Courier,monospace" font-size="11.00">AbusiveReport</text>
</g>
<!-- \\Trismegiste\\Socialist\\Content&#45;&gt;\\Trismegiste\\Socialist\\AbusiveReport -->
<g id="edge10" class="edge"><title>\\Trismegiste\\Socialist\\Content&#45;&gt;\\Trismegiste\\Socialist\\AbusiveReport</title>
<path fill="none" stroke="black" stroke-dasharray="1,5" d="M406.384,-161.055C359.584,-154.369 283.125,-143.446 229.447,-135.778"/>
<polygon fill="none" stroke="black" points="229.76,-132.287 219.366,-134.338 228.77,-139.217 229.76,-132.287"/>
</g>
<!-- \\Trismegiste\\Socialist\\FamousImpl -->
<g id="node11" class="node"><title>\\Trismegiste\\Socialist\\FamousImpl</title>
<polygon fill="none" stroke="black" points="845,-158 761,-158 761,-122 845,-122 845,-158"/>
<text text-anchor="middle" x="803" y="-137.2" font-family="Courier,monospace" font-size="11.00">FamousImpl</text>
</g>
<!-- \\Trismegiste\\Socialist\\FollowerImpl -->
<g id="node12" class="node"><title>\\Trismegiste\\Socialist\\FollowerImpl</title>
<polygon fill="none" stroke="black" points="852,-104 754,-104 754,-68 852,-68 852,-104"/>
<text text-anchor="middle" x="803" y="-83.2" font-family="Courier,monospace" font-size="11.00">FollowerImpl</text>
</g>
</g>
</svg>
